# xmcd
#
# Track frame offsets:
#	150
#	12980
#	26719
#	36136
#	46773
#	62145
#	74192
#	84625
#	98990
#	109930
#	122901
#	136211
#	151491
#	162538
#	171781
#	183131
#	194173
#	204868
#	217263
#	228726
#	239895
#	250854
#	262738
#	276253
#	286752
#	295967
#
# Disc length: 4065 seconds
#
# Revision: 0
# Processed by: cddbd v1.5.2PL0 Copyright (c) Steve Scherf et al.
# Submitted via: EasyCDDAExtractor 15.3.0.1
#
DISCID=950fdf1a
DTITLE=Wills Bob - Faded Love Cd 4
DYEAR=1900
DGENRE=
TTITLE0=Broken Heart For A Souvenir (1953)
TTITLE1=Everyone Is Calling You A) Fallen Angel (1954)
TTITLE2=She's The Quarter Horse Type (Of A Gal) (1954)
TTITLE3=B. Bowman Hop (1953)
TTITLE4=As I Sit Broken Hearted (1953)
TTITLE5=Bottle Baby Boogie (1953)
TTITLE6=I Want To Go To Mexico (1953)
TTITLE7=I'm Human Same As You (1985)
TTITLE8=I Hit The Jackbox (When I Won You) (1954)
TTITLE9=Maiden's Prayer (1955)
TTITLE10=Me And My Baby) Doin' The Bunny Hop (1955)
TTITLE11=St. Louis Blues (1954)
TTITLE12=So Long I'll See You Later (1955)
TTITLE13=Cadillac In Model 'a' (1954)
TTITLE14=Waltzing In Old San Antone (1954)
TTITLE15=I've Got A New Road Under My Wheels (1954)
TTITLE16=Texas Blues (1954)
TTITLE17=I Live For You (1955)
TTITLE18=New Osage Stomp (1955)
TTITLE19=Carnations For The Memory (1968)
TTITLE20=Too Much Mambo (2005)
TTITLE21=Echo Yodel (1955)
TTITLE22=New Dreamy Eyed Waltz (1968)
TTITLE23=Black And White Rag (1955)
TTITLE24=Sincerely (1955)
TTITLE25=Cornball Rag (1955)
EXTD=
EXTT0=
EXTT1=
EXTT2=
EXTT3=
EXTT4=
EXTT5=
EXTT6=
EXTT7=
EXTT8=
EXTT9=
EXTT10=
EXTT11=
EXTT12=
EXTT13=
EXTT14=
EXTT15=
EXTT16=
EXTT17=
EXTT18=
EXTT19=
EXTT20=
EXTT21=
EXTT22=
EXTT23=
EXTT24=
EXTT25=
PLAYORDER=
